<svg width="646" height="831" viewBox="0 0 500 600" fill="none" xmlns="http://www.w3.org/2000/svg">
<path d="M23.2754 249.433C20.2701 250.454 17.0699 250.598 13.997 249.85C10.9242 249.102 8.08731 247.488 5.77213 245.172C3.45695 242.855 1.74525 239.917 0.809451 236.654C-0.12635 233.392 -0.253202 229.919 0.441683 226.586C10.8678 179.518 50.5129 64.4137 194.941 16.0009C257.502 -4.96978 317.499 -5.32778 373.192 14.929C419.008 31.5246 449.423 57.4948 463.972 70.0471C467.669 73.2205 470.052 77.8574 470.598 82.9376C471.144 88.0179 469.808 93.1254 466.883 97.1366C466.847 97.1862 466.81 97.2357 466.774 97.285C463.771 101.309 459.431 103.891 454.69 104.475C449.949 105.058 445.186 103.598 441.428 100.407C415.069 77.8703 335.078 9.40418 205.434 52.861C78.8458 95.2938 44.4593 194.547 35.5404 235.154C34.8631 238.509 33.3673 241.604 31.2095 244.116C29.0518 246.628 26.3115 248.464 23.2754 249.433L23.2754 249.433Z" fill="#6C63FF"/>
<path d="M416.928 516.025C415.493 516.529 414.005 516.832 412.5 516.929C299.668 523.523 227.88 421.807 224.932 417.566L224.386 416.587C222.587 413.559 179.15 341.845 198.272 284.891C207.056 258.853 226.481 240.577 256.173 230.624C283.788 221.367 306.385 224.105 325.619 239.008C341.39 251.151 351.497 269.259 361.294 286.745C381.668 323.052 394.155 341.525 432.882 330.867C449.886 326.184 457.826 311.758 461.453 300.52C471.219 269.941 462.564 228.253 439.665 196.713C410.08 155.795 327.288 87.832 225.138 122.073C181.516 136.695 145.816 165.51 121.909 205.187C102.103 238.115 90.5895 279.011 90.3371 317.149C89.9397 388.161 143.573 481.584 144.081 482.43C145.316 484.574 146.15 486.96 146.535 489.453C146.92 491.946 146.849 494.497 146.325 496.96C145.802 499.423 144.837 501.75 143.484 503.808C142.132 505.867 140.419 507.616 138.444 508.956C138.389 508.993 138.334 509.03 138.279 509.066C134.232 511.805 129.355 512.707 124.701 511.577C120.046 510.446 115.989 507.375 113.403 503.026C110.983 498.754 53.7139 399.142 54.1753 317.07C54.8175 228.112 104.636 121.943 214.607 85.0803C265.438 68.0416 318.856 70.9054 369.125 93.2704C408.088 110.711 444.148 139.582 467.988 172.549C498.439 214.629 509.167 269.711 495.305 312.702C486.063 341.363 466.931 361.138 441.505 368.209C375.236 386.501 349.276 340.446 330.343 306.851C310.901 272.409 300.147 256.261 266.544 267.525C248.094 273.709 236.727 283.62 231.946 297.858C225.441 317.323 231.606 342.271 237.924 359.761C237.989 359.944 238.055 360.127 238.121 360.309C246.22 382.539 258.86 402.487 275.089 418.653C301.086 444.704 349.349 481.843 410.862 478.262C415.564 477.945 420.191 479.668 423.722 483.052C427.254 486.436 429.402 491.204 429.695 496.307C429.698 496.369 429.701 496.43 429.704 496.492C429.849 500.819 428.675 505.077 426.366 508.608C424.056 512.139 420.739 514.746 416.928 516.025L416.928 516.025Z" fill="#6C63FF"/>
<path d="M280.103 552.594C277.751 553.384 275.276 553.648 272.827 553.37C270.379 553.093 268.007 552.279 265.857 550.979C210.206 516.764 171.139 470.746 143.007 406.248L142.894 405.85C125.164 362.846 114.49 297.143 138.034 241.612C155.414 200.637 188.04 171.836 234.838 156.149C290.19 137.595 341.73 151.255 384.029 195.464C403.267 215.868 418.911 239.91 430.193 266.409C431.991 271.177 431.988 276.521 430.183 281.286C428.378 286.051 424.918 289.854 420.549 291.872C416.181 293.89 411.256 293.96 406.84 292.069C402.424 290.177 398.872 286.475 396.952 281.764C387.4 259.647 374.21 239.606 358.031 222.624C325.427 188.964 287.525 179.011 245.247 193.183C208.712 205.429 183.555 227.079 170.676 257.54C152.104 301.383 161.666 356.13 175.541 389.823C200.347 446.867 234.754 487.331 283.734 517.39C285.757 518.628 287.536 520.287 288.969 522.271C290.401 524.255 291.46 526.526 292.083 528.954C292.707 531.382 292.884 533.919 292.604 536.422C292.324 538.924 291.593 541.342 290.452 543.537C290.407 543.624 290.361 543.711 290.314 543.797C288.033 548.001 284.394 551.136 280.103 552.594Z" fill="#6C63FF"/>
<path d="M285.963 359.778C298.677 359.778 308.983 348.594 308.983 334.799C308.983 321.003 298.677 309.82 285.963 309.82C273.25 309.82 262.944 321.003 262.944 334.799C262.944 348.594 273.25 359.778 285.963 359.778Z" fill="#E6E6E6"/>
</svg>
